<svg id="Layer_1" data-name="Layer 1" xmlns="http://www.w3.org/2000/svg" viewBox="0 0 464.63 55.53"><defs><style>.cls-1{fill:#eef9fc;}.cls-2{fill:#75e6da;}</style></defs><path class="cls-1" d="M75.52,1.57,40,53.41H27L32.38,25,13,53.41H0L35.56,1.57H49l-4.57,26.5L62.56,1.57Z"/><path class="cls-1" d="M66.24,53.41l6.19-11.3h-12l-9.29,11.3H37.37L82.28,1.57h23.77L79.92,53.41Zm17-39.24-15,18.29h9.44L87.82,14.17Z"/><path class="cls-1" d="M134.4,1.57q8.21,0,9.83,3.6,1.19,2.75-.93,6.91a27.14,27.14,0,0,1-1.83,3l-3.87,5.61a35.86,35.86,0,0,1-6.84,7.56A26.13,26.13,0,0,1,124,32.39l-4.16,21H105.25L109.07,34H104.6L91.78,53.41H78L113.52,1.57ZM124.14,12.8h-5.4l-8.26,12.53h5a10.83,10.83,0,0,0,6.41-1.83,13.25,13.25,0,0,0,4.13-4.86Q129,12.81,124.14,12.8Z"/><path class="cls-1" d="M152.5,49.63a36.08,36.08,0,0,1-18.6,4.79q-10.44,0-12-4.82-1.2-3.32,1.78-9.15a49,49,0,0,1,3.47-5.69L149.88,1.57h13L140.25,34.48a34.9,34.9,0,0,0-2.2,3.74q-2.56,5,3.48,5a12.75,12.75,0,0,0,6.71-1.87q3.12-1.87,6.55-6.91l22.6-32.91h13L167.6,34.76Q160.67,44.84,152.5,49.63Z"/><path class="cls-1" d="M221.31,12.8H203.6L175.78,53.41h-13L190.57,12.8H172.78l7.74-11.23h56.53Z"/><path class="cls-1" d="M239.1,1.07q17.35,0,10.12,14.18a43.38,43.38,0,0,1-3.1,5.11l-9.86,14.4q-6.82,10-15,14.84a36.17,36.17,0,0,1-18.65,4.82q-10.44,0-12.09-4.82-1.12-3.32,1.85-9.15a49.22,49.22,0,0,1,3.48-5.69l9.85-14.4Q218.87,1.07,239.1,1.07ZM210.19,43.26a12.78,12.78,0,0,0,6.71-1.87q3.12-1.87,6.55-6.91l9.49-13.83a30,30,0,0,0,1.54-2.59q3-5.83-2.94-5.83-7.48.13-13.15,8.42L208.9,34.48a36.57,36.57,0,0,0-2.19,3.74C205,41.58,206.16,43.26,210.19,43.26Z"/><path class="cls-1" d="M333,30.25H320.33l-4.85,22.17H313L324.33,1.07h16.32c6.55,0,13.4,4.46,13.4,12.47,0,9.63-7.08,16.71-18.48,16.71l11,22.17h-2.85Zm18.33-16.71c0-6-5.31-10.16-10.63-10.16H326.33l-5.46,24.56h15.24C346,27.94,351.28,21.16,351.28,13.54Z"/><path class="cls-1" d="M363.57,36.91a21.62,21.62,0,0,1,.38-4.08L371,1h2.46l-7,31.88A16.38,16.38,0,0,0,366,36.6c0,8.55,5.78,14.32,15.63,14.32,10.78,0,15.56-6.7,18.1-18.09l7-31.88h2.47l-7,31.88c-2.85,12.7-8.08,20.4-20.56,20.4C370.65,53.23,363.57,47,363.57,36.91Z"/><path class="cls-1" d="M426.75,4.76,416.2,52.42h-2.46L425.06,1.07h2.46l24.18,47.2,10.47-47.2h2.46L453.31,52.42h-2.46Z"/><path class="cls-2" d="M263.31,16.39h0l-.05,0Z"/><path class="cls-2" d="M310.43,2.87c-.08-.82-1.19-1.82-2.06-2.23a5.86,5.86,0,0,0-6.48.76c-2,1.64-1.94,3.9-1.27,6.26a10.24,10.24,0,0,1-1.48,0c-1.34-.2-2.7-.76-4-.61-2.15.24-4.23,1-6.38,1.38-4.06.62-8.15,1.06-12.22,1.62a6.7,6.7,0,0,0-2,.65c-3.67,1.82-6.42,5.51-11.05,5.38-.06,0-.12.2-.19.31l4,2.6c-.53,1-1.08,2-1.62,3.06l.65.36,2.31-4.18c1.39,1.58.21,2.85-.2,4.4l1.81-1.44c-.24,2.05,1.46,1.8,2.54,2.12.57.17,1.73,0,1.89-.38.6-1.34,1.69-2.81,0-4.16,3.18-2.86,6.34-5.31,11.09-4.67a12.3,12.3,0,0,1-.93,1.14c-5.57,5.17-11.24,10.22-16.66,15.53-2.68,2.63-5.49,3.87-9.24,3.25-2.81-.46-4.94.74-6.29,3.33a24.45,24.45,0,0,1-2.22,3.24c-1.21,1.59-1.84,4.1-5.36,2.6,1,1.08,1.67,1.52,1.93,2.13a2.76,2.76,0,0,1,.19,2.12c-1,1.82-2.3,3.5-3.47,5.23l-.47-.29c.47-1-.29-2.59,1.7-3,.28-.06.57-1,.55-1.52-.06-1.26-.29-2.52-.46-3.79-.19.06-.35.06-.41.14a.87.87,0,0,0-.26.51c.21,2.28-.92,4-2.37,5.56a1.34,1.34,0,0,0-.37,1c.28,1.3.66,2.58,1.1,4.2a6.85,6.85,0,0,0,1.65-1.26c1.52-2.21,2.72-4.66,4.41-6.7,4-4.85,9.42-7.57,15.39-9.19,5.57-1.52,11.07-3.13,15.66-6.9a4.2,4.2,0,0,1,2-.92c1.81-.21,3.11-.95,3.6-2.77s1.43-1.67,3-1.39c5,.89,7.23,5.33,11,7.72-1,1.41-1.79,1.65-3.39,1a84.69,84.69,0,0,0-10-3.31,25.63,25.63,0,0,0-4.32-.51l0,.34,12.78,3.22c-1.73,1.15-3.79,1.42-2.85,3.69.06.12-.26.42-.44.61-1.16,1.24-2.3,2.5-3.51,3.69a2,2,0,0,1-1.13.48c-1.13.11-2.28.14-3.67.22a31.4,31.4,0,0,1,.51,5,6.77,6.77,0,0,0,4.33,6.3c-.1-.9-.16-1.73-.28-2.55-.8-5.55-.46-6.13,4.72-8.07,4-1.48,6.81-4.08,8-8.27-1.71,1.82-3.21,3.92-5.18,5.39a62.38,62.38,0,0,1-7.49,4.25l-.38-.45c.14-.36.2-1,.43-1.06,3-.88,4.13-3.46,5.49-5.82s1.52-2.47,4.27-1.81c.48.11,1.06-.29,1.61-.4.4-.07.81-.06,1.22-.09,1-1.17.76-2.08-.48-2.94a15.56,15.56,0,0,1-2.72-2.26c-2.72-3-5.88-5.1-10.24-5.42,2.05-2.77,4-5.09,7.35-5.87a7.65,7.65,0,0,0,5.59-4.58c1.15-3.06,3.22-3.62,6-3.3a19.91,19.91,0,0,1,3.12.24c1.19.34,1.75-.19,1.78-1.12A52.87,52.87,0,0,0,310.43,2.87Zm-24.26,45.5v4.11c-2.7-2.15-.14-5.51-2.1-8l2.1-.45Zm7.68-38.68a6,6,0,0,1,2-.13c0,.49.17,1.21-.09,1.44a5.11,5.11,0,0,1-2.1,1.13c-.37.08-.89-.45-1.78-.93A10.79,10.79,0,0,1,293.85,9.69ZM270.07,20c-.06-.72-.11-1.25-.18-2l2.89-.77.23.35Zm-1.66-4.17a24.36,24.36,0,0,1,10-5.14l.32,3.59C273.8,16.78,269.63,17.42,268.41,15.82Zm16.52-2.72a15.23,15.23,0,0,0-3.51.11c-2,.37-2.32-.48-1.87-2.19l8.78-1.12C288.15,12.41,287.23,13.2,284.93,13.1ZM254.81,41.27c-2.36,1.47-4.51,3.28-6.94,5.08.1-.56.06-1,.25-1.25q3.12-4.14,6.29-8.22c.7-.91,6-2.13,6.89-1.46a6.33,6.33,0,0,1,1.19,1.8C259.74,38.65,257.17,39.8,254.81,41.27Zm18.39-7.64c-2.4,1.24-4.87,2.36-7.38,3.37-.57.23-1.4-.18-2.11-.3.32-.63.48-1.45,1-1.87,3.29-2.79,6.65-5.49,9.75-8l3.65,3.81C276.59,31.55,275,32.72,273.2,33.63Zm6.63-4.32c-1.55-.13-3-.68-3.47-2.26-.18-.6.51-1.67,1.1-2.2a1.9,1.9,0,0,1,1.87.16C280.33,26.23,281.16,27.64,279.83,29.31Zm4.56-2.67c-.2,1.09-1.51,2-2.28,2.9l-1.95-5.37c.42.14,1,.4,1.67.57C283,25.06,284.66,25.14,284.39,26.64Zm-4.54-4.45c1.2-1.39,2.09-3.26,3.48-3.74,1-.37,2.7,1.06,4.09,1.69.47.21.95.39,1.44.59C286.29,25.5,283.22,24.65,279.85,22.19Zm5.29-5.1c1.09-2.75,1.76-3.21,4.54-3.18,1.22,0,2.44,0,4,0,.45,1.09,1,2.42,1.59,3.81C291.48,20.52,287.37,19.91,285.14,17.09Zm11.17.61-1.5-4,2.61-4.24,2,3.93ZM305.77,1C308.1.9,309.59,2,310,4.09h-5.3c-.09-.62-.17-1.17-.32-2.16-.09,1-.15,1.48-.21,2.11l-2.67.41A4.15,4.15,0,0,1,305.77,1Zm-4.34,4.5c3-.8,3.16-.62,3.17,3C303.39,7.56,301.29,7.74,301.43,5.46ZM301.18,11c-.4-.65-.82-1.37-1.25-2.09,2.35-1,3.92-.52,5.5,1.76Zm8.64-.19c-3.76-.34-4.59-1.34-4.92-5.88l5.39.5C310.13,7.27,310,9,309.82,10.8Z"/><path class="cls-2" d="M263.26,16.35c-.82,3.42-.82,3.42,1.6,5.59l-.38.37c-.89-.93-2.22-1.74-2.51-2.83-.22-.85.84-2.05,1.34-3.09Z"/></svg>